<svg width="24" height="24" fill="none" xmlns="http://www.w3.org/2000/svg"><path fill-rule="evenodd" clip-rule="evenodd" d="M6.5 16H16c1.886 0 2.828 0 3.414-.586C20 14.828 20 13.886 20 12V7c0-1.886 0-2.828-.586-3.414C18.828 3 17.886 3 16 3H8c-1.886 0-2.828 0-3.414.586C4 4.172 4 5.114 4 7v11.5A2.5 2.5 0 016.5 16zM9 6a2 2 0 100 4h6a2 2 0 100-4H9z" fill="#FFCA4A"/><path d="M19.414 15.414l-.707-.707.707.707zm0-11.828l-.707.707.707-.707zM9 6V5v1zm0 4V9v1zm6 0v1-1zm0-4V5v1zm1 9H6.5v2H16v-2zm2.707-.293c-.076.076-.212.17-.646.229-.462.062-1.09.064-2.061.064v2c.915 0 1.701.002 2.328-.082.655-.088 1.284-.287 1.793-.797l-1.414-1.414zM19 12c0 .971-.002 1.599-.064 2.061-.059.434-.153.57-.229.646l1.414 1.414c.51-.51.709-1.138.797-1.793C21.002 13.7 21 12.915 21 12h-2zm0-5v5h2V7h-2zm-.293-2.707c.076.076.17.212.229.646C18.998 5.4 19 6.029 19 7h2c0-.915.002-1.701-.082-2.328-.088-.655-.287-1.284-.797-1.793l-1.414 1.414zM16 4c.971 0 1.599.002 2.061.064.434.059.57.153.646.229l1.414-1.414c-.51-.51-1.138-.709-1.793-.797C17.7 1.998 16.915 2 16 2v2zM8 4h8V2H8v2zm-2.707.293c.076-.076.212-.17.646-.229C6.4 4.002 7.029 4 8 4V2c-.915 0-1.701-.002-2.328.082-.655.088-1.284.287-1.793.797l1.414 1.414zM5 7c0-.971.002-1.599.064-2.061.059-.434.153-.57.229-.646L3.879 2.879c-.51.51-.709 1.138-.797 1.793C2.998 5.3 3 6.085 3 7h2zm0 11.5V7H3v11.5h2zM6.5 15A3.5 3.5 0 003 18.5h2A1.5 1.5 0 016.5 17v-2zM8 8a1 1 0 011-1V5a3 3 0 00-3 3h2zm1 1a1 1 0 01-1-1H6a3 3 0 003 3V9zm6 0H9v2h6V9zm1-1a1 1 0 01-1 1v2a3 3 0 003-3h-2zm-1-1a1 1 0 011 1h2a3 3 0 00-3-3v2zM9 7h6V5H9v2zm2 13H6.5v2H11v-2zm-8-1.5A3.5 3.5 0 006.5 22v-2A1.5 1.5 0 015 18.5H3z" fill="#FFCA4A"/><path d="M20 21H10" stroke="#FFCA4A" stroke-width="2" stroke-linecap="round"/></svg>