<svg width="45" height="41" fill="none" xmlns="http://www.w3.org/2000/svg"><path d="M10.913 24.458a11.75 11.75 0 1123.175 0h-4.001a7.832 7.832 0 00-13.777-6.75 7.832 7.832 0 00-1.396 6.75h-4.001zm-7.996 3.917H22.5v3.917H2.917v-3.917zm23.5 0h15.666v3.917H26.418v-3.917zm3.916 7.833h7.834v3.917h-7.834v-3.917zm-23.5 0h19.584v3.917H6.833v-3.917zM20.543.958h3.916v5.875h-3.916V.958zM5.884 8.653l2.769-2.77 4.153 4.154-2.769 2.77-4.153-4.152v-.002zm30.462-2.77l2.769 2.77-4.154 4.153-2.769-2.769 4.154-4.153zm7.696 14.659v3.916h-5.875v-3.916h5.875zm-37.209 0v3.916H.959v-3.916h5.875z" fill="#fff"/></svg>