<svg width="51" height="50" fill="none" xmlns="http://www.w3.org/2000/svg"><path fill-rule="evenodd" clip-rule="evenodd" d="M25.894 37.316c2.357-1.139 14.481-7.533 14.481-18.566 0-8.054-6.66-14.583-14.875-14.583S10.625 10.696 10.625 18.75c0 11.033 12.124 17.427 14.48 18.566a.897.897 0 00.79 0zM25.5 25c3.52 0 6.375-2.798 6.375-6.25S29.021 12.5 25.5 12.5c-3.52 0-6.375 2.798-6.375 6.25S21.979 25 25.5 25z" fill="#004B8E"/><path d="M38.382 34.375c1.306.95 1.993 2.028 1.993 3.125s-.687 2.175-1.993 3.125c-1.305.95-3.183 1.74-5.444 2.288-2.262.548-4.827.837-7.438.837-2.611 0-5.176-.289-7.438-.837-2.26-.549-4.139-1.338-5.444-2.288-1.306-.95-1.993-2.028-1.993-3.125s.687-2.175 1.993-3.125" stroke="#004B8E" stroke-width="2" stroke-linecap="round"/></svg>