<svg width="40" height="39" fill="none" xmlns="http://www.w3.org/2000/svg"><path d="M28.333 21.125v1.625c0 4.501-1.106 8.848-3.191 12.75l-.379.682-2.911-1.583a23.757 23.757 0 003.136-11.108L25 22.75v-1.625h3.333zm-10-4.875h3.334v6.5l-.009.616a20.704 20.704 0 01-4.485 12.267l-.385.471-2.583-2.054a17.525 17.525 0 004.118-10.705l.01-.595v-6.5zM20 9.75c2.21 0 4.33.856 5.893 2.38a8.023 8.023 0 012.44 5.745H25a4.814 4.814 0 00-1.464-3.447A5.066 5.066 0 0020 13a5.066 5.066 0 00-3.535 1.428A4.814 4.814 0 0015 17.875v4.875c0 3.632-1.367 7.059-3.785 9.713l-.353.373-2.414-2.242a11.186 11.186 0 003.209-7.352l.01-.492v-4.875c0-2.155.878-4.222 2.44-5.745A8.443 8.443 0 0120 9.75zm0-6.5c3.978 0 7.794 1.54 10.607 4.284C33.42 10.276 35 13.996 35 17.875v4.875c0 2.76-.337 5.476-.995 8.109l-.232.876-3.216-.855a30.119 30.119 0 001.096-7.207l.014-.923v-4.875c0-2.111-.603-4.18-1.74-5.977a11.564 11.564 0 00-4.702-4.193 11.925 11.925 0 00-6.26-1.16 11.844 11.844 0 00-5.952 2.22l-2.375-2.317A15.179 15.179 0 0120 3.25zM8.28 8.747l2.377 2.316a11.142 11.142 0 00-2.317 6.42l-.007.392.007 3.25c0 1.82-.44 3.58-1.27 5.163l-.26.47-2.895-1.611A7.898 7.898 0 004.992 21.6l.015-.475v-3.25A14.3 14.3 0 018.28 8.747z" fill="#004B8E"/></svg>